<svg xmlns="http://www.w3.org/2000/svg" width="360" height="360" viewBox="0 0 360 360" role="img" aria-labelledby="title description">
  <title id="title">DR Plumbing, Heating and Cooling email mark</title>
  <desc id="description">Black and copper DR monogram on a bordered light tile, with protected clear space.</desc>
  <rect x="2" y="2" width="356" height="356" rx="44" fill="#F7F5F1" stroke="#D8D4CE" stroke-width="4"/>

  <g transform="translate(42 58) scale(.86)">
    <path fill="#111111" fill-rule="evenodd" d="M34 32h102c70 0 112 41 112 108s-42 108-112 108H34V32Zm52 46v124h48c40 0 62-22 62-62s-22-62-62-62H86Z"/>
    <path fill="#B4552A" fill-rule="evenodd" d="M126 32h71c53 0 82 27 82 70 0 31-16 54-46 65l57 81h-62l-49-73h-3v73h-50V32Zm50 45v58h19c22 0 33-10 33-29 0-20-11-29-33-29h-19Z"/>
  </g>
</svg>
